<svg width="20" height="20" viewBox="0 0 20 20" fill="none" xmlns="http://www.w3.org/2000/svg">
<g clip-path="url(#clip0_796_16049)">
<path d="M1.97255 2.7473C2.09372 2.6616 2.2468 2.80465 2.16622 2.92929C1.49778 3.96336 0.24192 6.41129 2.41934 7.74195L1.73387 9.01211C1.097 8.61586 6.19888e-06 7.67886 6.19888e-06 6.26343C6.19888e-06 5.09176 0.776217 3.59328 1.97255 2.7473Z" fill="#EC9E12"/>
<path d="M1.18102 12.6906C1.46172 12.3046 1.6129 11.8397 1.6129 11.3625V9.56289C1.6129 8.07136 2.74309 6.82246 4.22723 6.67406L10.875 6.04265C11.2418 6.00781 11.5762 5.81785 11.7939 5.52062L12.0867 5.12097L12.1206 5.09812C11.9914 4.65797 12.0548 4.13047 12.2379 3.75C12.5434 3.11551 13.6391 1.77418 14.7379 1.77418H15.6034C16.0965 1.77418 16.5709 1.96234 16.93 2.30023L17.742 3.06453L19.7628 3.6309C19.9248 3.67539 20.0256 3.83679 19.9943 4.00187L19.8722 4.57562C19.8195 4.85465 19.5916 5.06097 19.3145 5.0941L19.2465 5.51734C19.2002 5.75566 19.0281 5.94793 18.7963 6.02023C18.3202 6.16879 17.4516 6.38347 16.4928 6.36988C16.3366 6.36765 16.2046 6.48226 16.1968 6.63828C16.1749 7.07777 16.0979 7.75871 15.8568 8.53101L15.5066 9.5C15.2498 10.1209 14.8911 10.8505 14.4153 11.6532C12.9054 14.2002 12.9032 16.6129 12.9032 16.6129L13.8368 17.0797C14.0554 17.189 14.1935 17.4124 14.1935 17.6568V17.9032C14.1935 18.0814 14.0491 18.2258 13.8709 18.2258H12.2068C11.8711 18.2258 11.5915 17.9684 11.5638 17.6339L11.1457 12.5846C9.42422 13.0604 6.60126 12.7266 5.24036 12.0682C3.85458 14.0102 1.93543 14.4086 1.93543 14.4086V16.6128L3.14278 17.0958C3.3877 17.1937 3.54832 17.431 3.54832 17.6948V17.9032C3.54832 18.0813 3.40391 18.2257 3.22575 18.2257H1.5243C1.2045 18.2257 0.932974 17.9915 0.886099 17.6751L0.341841 14.0013C0.329458 13.9177 0.350357 13.8326 0.400043 13.7643L1.18102 12.6906Z" fill="#FCAA17"/>
<path d="M15.8568 8.53101L15.5066 9.5C15.2498 10.1209 14.8911 10.8505 14.4153 11.6532C14.1655 12.0745 13.9604 12.4909 13.7864 12.8945C14.0399 11.8322 14.4359 10.6187 14.6573 9.89918C15.1411 8.3266 15.0066 6.59246 15.0403 5.86691C15.0806 4.99996 16.129 5.02683 16.4247 5.1075L19.2645 5.40519L19.2465 5.51726C19.2002 5.75558 19.0281 5.94785 18.7963 6.02015C18.3202 6.16867 17.4516 6.3834 16.4928 6.3698C16.3366 6.36758 16.2046 6.48219 16.1969 6.6382C16.1749 7.07781 16.098 7.75871 15.8568 8.53101Z" fill="#FEDA2C"/>
<path d="M12.2379 3.75C12.444 3.32188 13.01 2.57188 13.6939 2.12934C14.1799 1.81481 14.8328 2.03567 15.0303 2.57989L15.0334 2.5884C15.1215 2.8311 15.0903 3.09434 14.9777 3.32668C14.5744 4.15856 14.7442 5.76614 13.4476 5.90723C11.9917 6.06571 11.8448 4.56653 12.2379 3.75Z" fill="#EC9E12"/>
<path d="M16.4485 3.70969C16.6266 3.70969 16.7726 3.56523 16.7726 3.38711C16.7726 3.20898 16.6298 3.06453 16.4516 3.06453H16.4484C16.2703 3.06453 16.1259 3.20898 16.1259 3.38711C16.1259 3.56523 16.2703 3.70969 16.4485 3.70969Z" fill="#4B3F4E"/>
<path d="M5.24042 12.0682C5.41058 11.7989 5.54288 11.5308 5.63667 11.3182C5.74183 11.0797 5.99847 10.9467 6.25308 11.0025C7.77339 11.3357 9.37277 11.1095 10.2866 10.9165C10.6884 10.8317 11.0693 11.1243 11.0908 11.5344L11.1458 12.5847C9.42429 13.0604 6.60132 12.7266 5.24042 12.0682Z" fill="#FEDA2C"/>
<path d="M16.6351 4.7609C17.16 4.90141 18.0995 5.01875 19.3139 5.09809L19.2465 5.51735C19.2311 5.5968 19.1974 5.66809 19.1565 5.73453C19.1441 5.73367 19.1324 5.73305 19.1201 5.73223C18.1653 5.66621 17.1197 5.55828 16.4686 5.3841C16.2964 5.33809 16.1943 5.16129 16.2403 4.98926C16.2863 4.81684 16.4634 4.71414 16.6351 4.7609Z" fill="#EC9E12"/>
<path d="M19.9943 4.00188L19.892 4.48297C19.8698 4.48535 19.8481 4.48922 19.8252 4.48922C19.5061 4.48922 19.2473 4.24852 19.2473 3.9516C19.2473 3.78758 19.328 3.64254 19.4525 3.54391L19.7628 3.6309C19.9248 3.67539 20.0256 3.8368 19.9943 4.00188Z" fill="#4B3F4E"/>
<path d="M15.8511 8.862C15.9883 8.86016 16.1109 8.75782 16.1411 8.60868C16.1761 8.43528 16.0727 8.26403 15.9102 8.22602C15.8874 8.22083 13.6259 7.67364 11.7101 5.54169C11.5947 5.41348 11.4038 5.40883 11.2836 5.53157C11.1634 5.65446 11.1596 5.85805 11.2748 5.98641C13.3244 8.26704 15.6839 8.83192 15.7833 8.85477C15.806 8.85993 15.8287 8.86227 15.8511 8.862Z" fill="#EC9E12"/>
<path d="M15.9677 10.0538C16.235 10.0538 16.4516 9.83712 16.4516 9.56989V9.24731C16.4516 8.98008 16.235 8.76344 15.9677 8.76344C15.7005 8.76344 15.4839 8.98008 15.4839 9.24731V9.56989C15.4839 9.83712 15.7005 10.0538 15.9677 10.0538Z" fill="#EC9E12"/>
</g>
<defs>
<clipPath id="clip0_796_16049">
<rect width="20" height="20" fill="white" transform="matrix(-1 0 0 1 20 0)"/>
</clipPath>
</defs>
</svg>
